<mxfile host="app.diagrams.net" modified="2024-04-08T20:56:33.257Z" agent="Mozilla/5.0 (Windows NT 10.0; Win64; x64) AppleWebKit/537.36 (KHTML, like Gecko) Chrome/123.0.0.0 Safari/537.36" etag="qW1736LmE-cKkSGmJqv9" version="24.2.3" type="github">
  <diagram name="Page-1" id="rK-AMSusxKKNQ6RRBM9y">
    <mxGraphModel dx="1528" dy="930" grid="1" gridSize="10" guides="1" tooltips="1" connect="1" arrows="1" fold="1" page="1" pageScale="1" pageWidth="827" pageHeight="1169" math="0" shadow="0">
      <root>
        <mxCell id="0" />
        <mxCell id="1" parent="0" />
        <mxCell id="FojOhy-D1rllTsTGri5z-2" value="Student" style="shape=umlActor;verticalLabelPosition=bottom;verticalAlign=top;html=1;" vertex="1" parent="1">
          <mxGeometry x="70" y="490" width="30" height="60" as="geometry" />
        </mxCell>
        <mxCell id="FojOhy-D1rllTsTGri5z-4" value="frame" style="shape=umlFrame;whiteSpace=wrap;html=1;pointerEvents=0;" vertex="1" parent="1">
          <mxGeometry x="214" y="300" width="516" height="480" as="geometry" />
        </mxCell>
        <mxCell id="FojOhy-D1rllTsTGri5z-8" style="rounded=0;orthogonalLoop=1;jettySize=auto;html=1;exitX=1;exitY=0.5;exitDx=0;exitDy=0;entryX=0;entryY=0.5;entryDx=0;entryDy=0;endArrow=none;endFill=0;" edge="1" parent="1" source="FojOhy-D1rllTsTGri5z-5" target="FojOhy-D1rllTsTGri5z-7">
          <mxGeometry relative="1" as="geometry" />
        </mxCell>
        <mxCell id="FojOhy-D1rllTsTGri5z-5" value="Login" style="ellipse;whiteSpace=wrap;html=1;" vertex="1" parent="1">
          <mxGeometry x="294" y="365" width="140" height="70" as="geometry" />
        </mxCell>
        <mxCell id="FojOhy-D1rllTsTGri5z-6" style="rounded=0;orthogonalLoop=1;jettySize=auto;html=1;exitX=1;exitY=0.3333333333333333;exitDx=0;exitDy=0;exitPerimeter=0;entryX=0;entryY=0.5;entryDx=0;entryDy=0;endArrow=none;endFill=0;" edge="1" parent="1" source="FojOhy-D1rllTsTGri5z-2" target="FojOhy-D1rllTsTGri5z-5">
          <mxGeometry relative="1" as="geometry" />
        </mxCell>
        <mxCell id="FojOhy-D1rllTsTGri5z-7" value="Validation" style="ellipse;whiteSpace=wrap;html=1;" vertex="1" parent="1">
          <mxGeometry x="550" y="345" width="140" height="70" as="geometry" />
        </mxCell>
        <mxCell id="FojOhy-D1rllTsTGri5z-9" value="&amp;lt;&amp;lt;includes&amp;gt;&amp;gt;" style="text;html=1;align=center;verticalAlign=middle;resizable=0;points=[];autosize=1;strokeColor=none;fillColor=none;rotation=0;" vertex="1" parent="1">
          <mxGeometry x="440" y="360" width="100" height="30" as="geometry" />
        </mxCell>
      </root>
    </mxGraphModel>
  </diagram>
</mxfile>
